<?xml version="1.0" encoding="UTF-8"?> <svg xmlns="http://www.w3.org/2000/svg" width="604" height="443" viewBox="0 0 604 443" fill="none"><path d="M504.14 85.7686V316.568C504.14 324.427 497.216 330.79 488.684 330.79H119.855C111.323 330.79 104.415 324.427 104.415 316.568V85.7686C104.415 77.9097 111.323 71.5464 119.855 71.5464H488.684C497.216 71.5464 504.14 77.9097 504.14 85.7686Z" fill="white" stroke="#1D1D1D" stroke-miterlimit="10" stroke-linecap="round"></path><path d="M602.937 15.2222V254.516C602.937 262.375 596.029 268.738 587.497 268.738H381.845C373.313 268.738 366.405 262.375 366.405 254.516V15.2222C366.405 7.36329 373.313 1 381.845 1H587.497C593.67 1 599.001 4.32979 601.467 9.14105C602.401 10.9894 602.937 13.0493 602.937 15.2222Z" fill="#FB4E81" stroke="#1D1D1D" stroke-miterlimit="10" stroke-linecap="round"></path><path d="M299.039 217.281V400.688C299.039 408.547 292.115 414.91 283.584 414.91H16.5542C8.02232 414.91 1.11414 408.547 1.11414 400.688V217.281C1.11414 209.422 8.02232 203.045 16.5542 203.045H283.584C292.115 203.045 299.039 209.422 299.039 217.281Z" fill="#FFC5BC" stroke="#1D1D1D" stroke-miterlimit="10" stroke-linecap="round"></path><path d="M474.271 301.641V436.187C474.271 439.404 471.452 442 467.96 442H407.226C403.734 442 400.915 439.404 400.915 436.187V301.641C400.915 298.424 403.734 295.828 407.226 295.828H467.96C471.452 295.828 474.271 298.424 474.271 301.641Z" fill="white" stroke="#1D1D1D" stroke-miterlimit="10" stroke-linecap="round"></path><path d="M474.256 417.943V436.187C474.256 439.404 471.437 442 467.945 442H407.211C403.719 442 400.9 439.404 400.9 436.187V417.943H474.256Z" stroke="#1D1D1D" stroke-miterlimit="10" stroke-linecap="round"></path><path d="M437.585 437.598C442.094 437.598 445.75 434.231 445.75 430.078C445.75 425.924 442.094 422.558 437.585 422.558C433.076 422.558 429.421 425.924 429.421 430.078C429.421 434.231 433.076 437.598 437.585 437.598Z" stroke="#1D1D1D" stroke-miterlimit="10" stroke-linecap="round"></path><path d="M584.909 268.738H381.845C373.313 268.738 366.405 262.374 366.405 254.516V71.8145L584.909 268.738Z" fill="#FFC5BC" stroke="#1D1D1D" stroke-miterlimit="10" stroke-linecap="round"></path><path d="M474.271 301.641V364.201C443.192 380.85 416.447 395.157 400.915 403.496V301.641C400.915 298.424 403.734 295.828 407.226 295.828H467.96C471.452 295.828 474.271 298.424 474.271 301.641Z" fill="#A2789D" stroke="#1D1D1D" stroke-miterlimit="10" stroke-linecap="round"></path><path d="M284.625 71.5464C232.04 99.8496 156.571 140.216 104.415 168.153V85.7685C104.415 77.9097 111.323 71.5464 119.855 71.5464H284.625Z" fill="white" stroke="#1D1D1D" stroke-miterlimit="10" stroke-linecap="round"></path><path d="M304.201 111.49H296.65C294.337 111.49 292.315 112.308 291.702 113.507L283.982 138.396C283.614 139.102 281.7 139.088 281.409 138.354L275.374 113.649C274.853 112.393 272.77 111.49 270.365 111.49H260.914C243.804 111.49 229.942 103.716 229.942 91.2994V67.8497C229.942 56.8163 243.804 48.1108 260.914 48.1108H304.186C321.295 48.1108 335.158 54.9821 335.158 67.8497V91.2994C335.158 104.181 321.295 111.49 304.201 111.49Z" fill="#A2789D" stroke="#1D1D1D" stroke-miterlimit="10" stroke-linecap="round"></path><path d="M282.557 97.7332C293.58 97.7332 302.516 89.5022 302.516 79.3488C302.516 69.1953 293.58 60.9644 282.557 60.9644C271.534 60.9644 262.599 69.1953 262.599 79.3488C262.599 89.5022 271.534 97.7332 282.557 97.7332Z" stroke="#1D1D1D" stroke-miterlimit="10" stroke-linecap="round"></path><path d="M233.832 203.045C167.722 238.756 57.0689 299.426 1.11414 330.184V217.281C1.11414 209.422 8.02232 203.045 16.5541 203.045H233.832Z" fill="white" stroke="#1D1D1D" stroke-miterlimit="10" stroke-linecap="round"></path><path d="M299.039 217.281V240.703H1.11414V217.281C1.11414 209.422 8.02232 203.045 16.5542 203.045H283.584C292.115 203.045 299.039 209.422 299.039 217.281Z" fill="#FB4E81" stroke="#1D1D1D" stroke-miterlimit="10" stroke-linecap="round"></path><path d="M19.3266 224.476C22.1521 224.476 24.4427 222.367 24.4427 219.764C24.4427 217.162 22.1521 215.052 19.3266 215.052C16.5011 215.052 14.2106 217.162 14.2106 219.764C14.2106 222.367 16.5011 224.476 19.3266 224.476Z" stroke="#1D1D1D" stroke-miterlimit="10" stroke-linecap="round"></path><path d="M36.8037 224.476C39.6292 224.476 41.9197 222.367 41.9197 219.764C41.9197 217.162 39.6292 215.052 36.8037 215.052C33.9782 215.052 31.6877 217.162 31.6877 219.764C31.6877 222.367 33.9782 224.476 36.8037 224.476Z" stroke="#1D1D1D" stroke-miterlimit="10" stroke-linecap="round"></path><path d="M54.2657 224.476C57.0912 224.476 59.3818 222.367 59.3818 219.764C59.3818 217.162 57.0912 215.052 54.2657 215.052C51.4402 215.052 49.1497 217.162 49.1497 219.764C49.1497 222.367 51.4402 224.476 54.2657 224.476Z" stroke="#1D1D1D" stroke-miterlimit="10" stroke-linecap="round"></path><path d="M271.835 269.429C264.85 272.42 260.439 270.219 260.102 270.572C193.731 344.124 67.5307 414.896 67.5307 414.896H16.5541C8.02232 414.896 1.11414 408.533 1.11414 400.674V320.66C32.9745 303.503 144.884 243.722 220.537 203.031C242.885 191.024 262.062 180.668 275.082 173.571C283.185 169.155 291.564 176.604 282.818 185.987C278.82 190.276 259.857 208.28 257.36 209.888C256.625 210.368 271.284 202.819 277.564 208.054C285.299 214.488 276.568 226.904 276.568 226.904C276.568 226.904 281.761 224.378 285.544 229.204C290.783 235.863 282.052 248.054 282.052 248.054C282.052 248.054 286.05 247.588 286.295 252.879C286.724 261.641 276.92 267.256 271.835 269.429Z" fill="white" stroke="#1D1D1D" stroke-miterlimit="10" stroke-linecap="round"></path><path d="M282.067 248.054C276.078 254.487 257.621 263.446 249.625 258.395C244.248 254.981 246.883 249.662 246.883 249.662" stroke="#1D1D1D" stroke-miterlimit="10" stroke-linecap="round"></path><path d="M240.649 238.163C240.649 238.163 239.653 242.988 241.399 245.754C249.579 258.678 270.594 234.72 276.583 226.904" stroke="#1D1D1D" stroke-miterlimit="10" stroke-linecap="round"></path><path d="M194.987 219.778C216.447 215.87 245.887 217.479 253.867 220.004C261.802 222.516 261.158 234.706 243.145 237.472C226.679 239.997 198.985 241.154 198.985 241.154" stroke="#1D1D1D" stroke-miterlimit="10" stroke-linecap="round"></path><path d="M260.531 270.473C255.69 268.865 256.87 261.613 259.612 259.539" stroke="#1D1D1D" stroke-miterlimit="10" stroke-linecap="round"></path><path d="M257.36 209.902L245.137 218.395" stroke="#1D1D1D" stroke-miterlimit="10" stroke-linecap="round"></path><path d="M232.653 238.854C237.401 242.989 236.896 256.787 231.152 265.055C224.918 274.043 214.931 275.172 203.703 276.089" stroke="#1D1D1D" stroke-miterlimit="10" stroke-linecap="round"></path><path d="M602.938 15.2217V97.0415C553.186 132.653 443.13 171.891 384.158 196.907C383.714 197.105 384.204 203.002 374.891 204.54C371.598 205.076 368.779 205.344 366.405 205.387C355.285 205.627 353.263 201.478 353.263 201.478C353.263 201.478 342.816 202.128 338.298 196.568C334.3 191.673 339.293 187.383 339.293 187.383C339.293 187.383 330.838 185.521 326.978 179.722C323.317 174.205 331.282 168.237 330.501 168.576C327.82 169.747 302.256 175.814 296.404 176.858C283.614 179.158 280.826 169.069 288.761 164.893C301.505 158.191 320.177 148.272 341.897 136.689C349.709 132.526 357.935 128.138 366.405 123.623C437.631 85.5989 527.162 37.5567 554.871 22.8125L601.467 9.14062C602.401 10.9889 602.938 13.0489 602.938 15.2217Z" fill="white" stroke="#1D1D1D" stroke-miterlimit="10" stroke-linecap="round"></path><path d="M352.926 201.465C361.687 199.899 379.364 194.467 378.583 185.846C378.047 180.033 371.904 179.525 371.904 179.525" stroke="#1D1D1D" stroke-miterlimit="10" stroke-linecap="round"></path><path d="M364.383 169.169C364.383 169.169 369.285 170.707 370.97 173.388C378.858 185.945 349.648 186.171 339.63 187.074" stroke="#1D1D1D" stroke-miterlimit="10" stroke-linecap="round"></path><path d="M369.484 124.894C355.606 139.681 342.939 163.314 341.422 170.721C339.906 178.086 351.363 183.448 362.56 170.778C372.777 159.208 387.13 138.256 387.13 138.256" stroke="#1D1D1D" stroke-miterlimit="10" stroke-linecap="round"></path><path d="M383.867 197.175C384.725 192.647 377.097 192.661 373.88 193.804" stroke="#1D1D1D" stroke-miterlimit="10" stroke-linecap="round"></path><path d="M330.486 168.576L344.134 163.158" stroke="#1D1D1D" stroke-miterlimit="10" stroke-linecap="round"></path><path d="M368.841 163.299C378.368 175.883 404.822 168.985 407.318 160.717" stroke="#1D1D1D" stroke-miterlimit="10" stroke-linecap="round"></path><path d="M602.937 15.2221V33.8464H366.405V15.2221C366.405 7.36328 373.313 1 381.845 1H587.497C596.029 1 602.937 7.36328 602.937 15.2221Z" fill="#A2789D" stroke="#1D1D1D" stroke-miterlimit="10" stroke-linecap="round"></path><path d="M384.25 22.0067C387.075 22.0067 389.366 19.897 389.366 17.2946C389.366 14.6922 387.075 12.5825 384.25 12.5825C381.424 12.5825 379.134 14.6922 379.134 17.2946C379.134 19.897 381.424 22.0067 384.25 22.0067Z" stroke="#1D1D1D" stroke-miterlimit="10" stroke-linecap="round"></path><path d="M401.712 22.0067C404.538 22.0067 406.828 19.897 406.828 17.2946C406.828 14.6922 404.538 12.5825 401.712 12.5825C398.887 12.5825 396.596 14.6922 396.596 17.2946C396.596 19.897 398.887 22.0067 401.712 22.0067Z" stroke="#1D1D1D" stroke-miterlimit="10" stroke-linecap="round"></path><path d="M419.174 22.0067C421.999 22.0067 424.29 19.897 424.29 17.2946C424.29 14.6922 421.999 12.5825 419.174 12.5825C416.348 12.5825 414.058 14.6922 414.058 17.2946C414.058 19.897 416.348 22.0067 419.174 22.0067Z" stroke="#1D1D1D" stroke-miterlimit="10" stroke-linecap="round"></path><path d="M164 18.5088V163.171C164 166.374 161.182 168.984 157.689 168.984H45.8412C42.3641 168.984 39.5304 166.388 39.5304 163.171V18.5088C39.5304 15.306 42.3488 12.6958 45.8412 12.6958H157.689C161.166 12.6958 164 15.306 164 18.5088Z" fill="#FB4E81" stroke="#1D1D1D" stroke-miterlimit="10" stroke-linecap="round"></path><path d="M157.781 23.9558V131.624C157.781 132.372 157.643 133.077 157.398 133.726L157.383 133.768C156.602 135.744 154.794 137.126 152.696 137.126H50.8347C48.0316 137.126 45.7647 134.671 45.7647 131.624V23.9558C45.7647 20.9223 48.0316 18.4673 50.8347 18.4673H152.696C155.499 18.4673 157.781 20.9223 157.781 23.9558Z" fill="white" stroke="#1D1D1D" stroke-miterlimit="10" stroke-linecap="round"></path><path d="M102.776 159.955C107.285 159.955 110.941 156.588 110.941 152.435C110.941 148.281 107.285 144.915 102.776 144.915C98.2674 144.915 94.6122 148.281 94.6122 152.435C94.6122 156.588 98.2674 159.955 102.776 159.955Z" stroke="#1D1D1D" stroke-miterlimit="10" stroke-linecap="round"></path><path d="M157.781 131.624L157.398 133.726L157.383 133.769C156.602 135.744 154.794 137.127 152.696 137.127H50.8347C48.0316 137.127 45.7647 134.672 45.7647 131.624V23.9561C68.4805 23.9561 81.1174 45.1905 81.1174 65.4092C81.1174 83.1869 95.7609 92.3861 115.061 92.3861C142.341 92.3861 157.781 111.377 157.781 131.624Z" fill="#FFC5BC" stroke="#1D1D1D" stroke-miterlimit="10" stroke-linecap="round"></path></svg> 